<?xml version="1.0" encoding="UTF-8"?>
<svg id="Logo" xmlns="http://www.w3.org/2000/svg" version="1.1" viewBox="0 0 748.7 134.7">
  <!-- Generator: Adobe Illustrator 29.0.1, SVG Export Plug-In . SVG Version: 2.1.0 Build 192)  -->
  <defs>
    <style>
      .st0 {
        fill: #95834d;
      }
    </style>
  </defs>
  <path class="st0" d="M133.4,0H-1.2v88.6c0,25.4,20.7,46.1,46.1,46.1h42.5c25.4,0,46.1-20.7,46.1-46.1V0h-.1ZM5.8,7.2h120.5v35.4h-42.5v42.5h-35.4v-42.5H5.9V7.1h0ZM126.3,88.5c0,21.5-17.5,39-39,39h-42.5c-21.5,0-39-17.5-39-39v-39h35.4v42.5h49.6v-42.5h35.4v39h0Z"/>
  <g>
    <path class="st0" d="M197.3,26.5h-10.8v30.3h-5.9v-30.3h-10.8v-5.2h27.5v5.2h0Z"/>
    <path class="st0" d="M202.9,56.8V21.4h23.1v5h-17.3v9.7h16.2v4.8h-16.2v11h18v5h-23.8Z"/>
    <path class="st0" d="M253.9,45h5.8v1.4c0,1.4-.2,2.7-.7,3.9s-1.2,2.4-2.2,3.4c-1,1.1-2.4,1.9-4.2,2.6-1.8.6-4,1-6.4,1s-4.7-.4-6.5-1.1-3.3-1.7-4.3-3c-1-1.2-1.8-2.6-2.2-4-.5-1.4-.7-3-.7-4.6v-11.2c0-1.6.2-3.1.7-4.6.5-1.4,1.2-2.8,2.2-4s2.4-2.2,4.3-3c1.8-.7,4-1.1,6.5-1.1s4.6.3,6.4.9,3.2,1.5,4.2,2.5c1,1.1,1.7,2.2,2.2,3.4.5,1.2.7,2.4.7,3.8v1.2h-5.8v-.9c0-1.6-.6-2.9-1.8-4.1-1.2-1.1-3.2-1.7-5.9-1.7s-4.7.7-6,2.2c-1.2,1.5-1.9,3.2-1.9,5.3v11.2c0,2.1.6,3.9,1.8,5.4s3.2,2.2,6,2.2,4.7-.6,5.9-1.7,1.8-2.6,1.8-4.3v-1.1s.1,0,.1,0Z"/>
    <path class="st0" d="M288.3,56.8v-15.9h-15.9v15.9h-5.9V21.4h5.9v14.4h15.9v-14.4h5.9v35.4s-5.9,0-5.9,0Z"/>
    <path class="st0" d="M325.6,56.8l-17.2-24.6v24.6h-5.6V21.4h4.9l17.1,24.7v-24.7h5.6v35.4h-4.9.1Z"/>
    <path class="st0" d="M345.1,21.3v35.4h-5.9V21.3h5.9Z"/>
    <path class="st0" d="M374.3,45h5.8v1.4c0,1.4-.2,2.7-.7,3.9s-1.2,2.4-2.2,3.4c-1,1.1-2.4,1.9-4.2,2.6-1.8.6-4,1-6.4,1s-4.7-.4-6.5-1.1-3.3-1.7-4.3-3c-1-1.2-1.8-2.6-2.2-4-.5-1.4-.7-3-.7-4.6v-11.2c0-1.6.2-3.1.7-4.6.5-1.4,1.2-2.8,2.2-4s2.4-2.2,4.3-3c1.8-.7,4-1.1,6.5-1.1s4.6.3,6.4.9,3.2,1.5,4.2,2.5c1,1.1,1.7,2.2,2.2,3.4.5,1.2.7,2.4.7,3.8v1.2h-5.8v-.9c0-1.6-.6-2.9-1.8-4.1-1.2-1.1-3.2-1.7-5.9-1.7s-4.7.7-6,2.2c-1.2,1.5-1.9,3.2-1.9,5.3v11.2c0,2.1.6,3.9,1.8,5.4,1.2,1.5,3.2,2.2,6,2.2s4.7-.6,5.9-1.7c1.2-1.2,1.8-2.6,1.8-4.3v-1.1s.1,0,.1,0Z"/>
    <path class="st0" d="M392.8,47v9.8h-5.9V21.4h5.9v18l15.4-18h7l-13,14.9,13.4,20.5h-7l-10.4-15.9-5.3,6.1h-.1Z"/>
    <path class="st0" d="M442.4,56.8l-2.9-8.6h-13.6l-2.9,8.6h-5.9l12.8-35.4h5.9l12.8,35.4h-6.2,0ZM437.9,43.5l-5.2-15.3-5.2,15.3h10.4ZM440.3,11.6l-5.2,7.2h-4.5l3.6-7.2s6.1,0,6.1,0Z"/>
    <path class="st0" d="M464.1,21.3h5.9v23c0,2.2.6,4.1,1.9,5.6,1.2,1.5,3.3,2.3,6.2,2.3s4.9-.8,6.2-2.3c1.2-1.5,1.9-3.4,1.9-5.6v-23h5.9v23.3c0,1.6-.2,3.1-.7,4.6-.5,1.4-1.2,2.8-2.2,4s-2.5,2.2-4.3,3c-1.9.7-4.1,1.1-6.7,1.1s-4.7-.4-6.6-1.1c-1.9-.7-3.3-1.7-4.4-3-1-1.2-1.8-2.6-2.2-4-.5-1.4-.7-3-.7-4.6v-23.3h-.2,0Z"/>
    <path class="st0" d="M523.2,56.8l-17.2-24.6v24.6h-5.6V21.4h4.9l17.1,24.7v-24.7h5.6v35.4h-4.9.1Z"/>
    <path class="st0" d="M542.7,21.3v35.4h-5.9V21.3h5.9Z"/>
    <path class="st0" d="M560.4,56.8l-12.4-35.4h6.3l9.3,27.4,9.2-27.4h6l-12.4,35.4h-6,0Z"/>
    <path class="st0" d="M584,56.8V21.4h23.1v5h-17.3v9.7h16.2v4.8h-16.2v11h18v5h-23.8Z"/>
    <path class="st0" d="M628.3,44h-7.5v12.8h-5.9V21.4h13.4c2.6,0,4.9.3,6.8.9,1.9.6,3.3,1.5,4.4,2.6,1,1.1,1.7,2.3,2.2,3.6.5,1.3.7,2.7.7,4.3,0,5.3-2.3,8.7-7,10.3l6.4,13.9h-6.3l-5.8-12.9h-1.4ZM628.3,26.3h-7.5v12.8h7.5c5.3,0,8-2.1,8-6.4s-2.7-6.4-8-6.4Z"/>
    <path class="st0" d="M647.9,21.3h25.3v4.7l-18.8,25.7h19.5v5h-26.9v-4.8l18.8-25.7h-17.9v-5h0Z"/>
    <path class="st0" d="M686.4,21.3v35.4h-5.9V21.3h5.9Z"/>
    <path class="st0" d="M719.5,26.5h-10.8v30.3h-5.9v-30.3h-10.8v-5.2h27.5v5.2Z"/>
    <path class="st0" d="M743.4,56.8l-2.9-8.6h-13.6l-2.9,8.6h-5.9l12.8-35.4h5.9l12.8,35.4h-6.2,0ZM738.9,43.5l-5.2-15.3-5.2,15.3h10.4Z"/>
    <path class="st0" d="M181.9,113.5l-12.4-35.4h6.3l9.3,27.4,9.2-27.4h6l-12.4,35.4h-6Z"/>
    <path class="st0" d="M222,103.7v9.8h-5.9v-35.4h5.9v18l15.4-18h7l-13,14.9,13.4,20.5h-7l-10.4-15.9-5.3,6.1h-.1,0Z"/>
    <path class="st0" d="M267.8,112.9c-1.9.7-4.1,1.1-6.7,1.1s-4.8-.4-6.7-1.1c-1.9-.7-3.3-1.7-4.4-3-1-1.2-1.8-2.6-2.3-4s-.7-3-.7-4.6v-11.2c0-1.6.2-3.1.7-4.6.5-1.4,1.2-2.8,2.3-4,1-1.2,2.5-2.2,4.4-3,1.9-.7,4.1-1.1,6.7-1.1s4.8.4,6.7,1.1c1.9.7,3.3,1.7,4.4,3,1,1.2,1.8,2.6,2.3,4s.7,2.9.7,4.6v11.2c0,1.6-.2,3.1-.7,4.6-.5,1.4-1.2,2.8-2.3,4-1,1.2-2.5,2.2-4.4,3ZM261.1,108.8c2.9,0,5-.8,6.3-2.3s1.9-3.4,1.9-5.6v-10.5c0-2.2-.6-4.1-1.9-5.6s-3.3-2.3-6.3-2.3-4.9.8-6.2,2.3-1.9,3.4-1.9,5.6v10.5c0,2.2.6,4.1,1.9,5.6,1.3,1.5,3.3,2.3,6.2,2.3Z"/>
    <path class="st0" d="M307.8,88h-5.9v-.6c0-3.5-2.5-5.2-7.5-5.2s-7,1.7-7,5,.4,2.2,1.1,2.9c.8.7,2,1.2,3.6,1.6l7.5,1.6c5.9,1.3,8.8,4.4,8.9,9.3,0,3.5-1.1,6.2-3.2,8.3s-5.5,3.1-10.1,3.1-5-.3-6.9-.8-3.4-1.3-4.4-2.3-1.7-2-2.2-3.1c-.4-1.1-.7-2.3-.7-3.6v-.7h5.9v.6c0,3.3,2.7,4.9,8.1,4.9s7.3-1.9,7.3-5.7-.4-2.4-1.2-3.1c-.8-.8-2-1.3-3.7-1.7l-7.5-1.6c-5.6-1.2-8.4-4.3-8.4-9.3s1.1-5.4,3.2-7.3,5.4-2.9,9.7-2.9,7.9,1,10,2.9,3.2,4.3,3.2,7.1v.7h.2ZM294.9,72.7h0l3.2-4.4,4.4.2-5,7.1h-5.2l-5.1-7.3h4.4l3.2,4.4s.1,0,.1,0Z"/>
    <path class="st0" d="M321.4,78v35.4h-5.9v-35.4h5.9Z"/>
    <path class="st0" d="M350.6,101.7h5.8v1.4c0,1.4-.2,2.7-.7,3.9s-1.2,2.4-2.2,3.4c-1,1.1-2.4,1.9-4.2,2.6-1.8.6-4,1-6.4,1s-4.7-.4-6.5-1.1-3.3-1.7-4.3-3c-1-1.2-1.8-2.6-2.2-4-.5-1.4-.7-3-.7-4.6v-11.2c0-1.6.2-3.1.7-4.6.5-1.4,1.2-2.8,2.2-4s2.4-2.2,4.3-3c1.8-.7,4-1.1,6.5-1.1s4.6.3,6.4.9,3.2,1.5,4.2,2.5c1,1.1,1.7,2.2,2.2,3.4s.7,2.4.7,3.8v1.2h-5.8v-.9c0-1.6-.6-2.9-1.8-4.1-1.2-1.1-3.2-1.7-5.9-1.7s-4.7.7-6,2.2c-1.2,1.5-1.9,3.2-1.9,5.3v11.2c0,2.1.6,3.9,1.8,5.4,1.2,1.5,3.2,2.2,6,2.2s4.7-.6,5.9-1.7c1.2-1.2,1.8-2.6,1.8-4.3v-1.1h.1Z"/>
    <path class="st0" d="M369.2,78v35.4h-5.9v-35.4h5.9Z"/>
    <path class="st0" d="M399.7,113.5l-2.9-8.6h-13.6l-2.9,8.6h-5.9l12.8-35.4h5.9l12.8,35.4h-6.2,0ZM395.2,100.2l-5.2-15.3-5.2,15.3h10.4Z"/>
    <path class="st0" d="M430.9,101.7h5.8v1.4c0,1.4-.2,2.7-.7,3.9s-1.2,2.4-2.2,3.4c-1,1.1-2.4,1.9-4.2,2.6-1.8.6-4,1-6.4,1s-4.7-.4-6.5-1.1-3.3-1.7-4.3-3c-1-1.2-1.8-2.6-2.2-4-.5-1.4-.7-3-.7-4.6v-11.2c0-1.6.2-3.1.7-4.6.5-1.4,1.2-2.8,2.2-4s2.4-2.2,4.3-3c1.8-.7,4-1.1,6.5-1.1s4.6.3,6.4.9,3.2,1.5,4.2,2.5c1,1.1,1.7,2.2,2.2,3.4s.7,2.4.7,3.8v1.2h-5.8v-.9c0-1.6-.6-2.9-1.8-4.1-1.2-1.1-3.2-1.7-5.9-1.7s-4.7.7-6,2.2c-1.2,1.5-1.9,3.2-1.9,5.3v11.2c0,2.1.6,3.9,1.8,5.4,1.2,1.5,3.2,2.2,6,2.2s4.7-.6,5.9-1.7c1.2-1.2,1.8-2.6,1.8-4.3v-1.1h.1Z"/>
    <path class="st0" d="M465.3,113.5v-15.9h-15.9v15.9h-5.9v-35.4h5.9v14.4h15.9v-14.4h5.9v35.4h-5.9Z"/>
  </g>
</svg>